<svg width="54" height="53" viewBox="0 0 54 53" fill="none" xmlns="http://www.w3.org/2000/svg">
<rect x="5.63969" y="0.350168" width="42.1416" height="42.1416" stroke="#5F2EEA" stroke-width="0.700337"/>
<path d="M1.75967 45.9853C1.28777 46.3495 0.999939 46.9213 0.999939 47.5173V48.936H3.03889C3.52866 48.936 3.99226 48.7562 4.35038 48.4221C14.144 39.285 34.9873 21.3077 44.3333 18.5589C42.5393 18.1248 31.5119 23.0277 1.75967 45.9853Z" fill="#5F2EEA"/>
<path d="M4.35038 48.4221C3.99226 48.7562 3.52866 48.936 3.03889 48.936H0.999939V49.8891C0.999939 50.3999 1.20285 50.8897 1.56403 51.2509L1.7914 51.4783C2.12542 51.8123 2.57845 52 3.05083 52C3.5307 52 3.98609 51.8106 4.32265 51.4685C6.54254 49.2123 15.357 40.3199 21.1346 35.4545C27.7878 29.8518 34.7912 23.8989 44.3333 18.5589C34.9873 21.3077 14.144 39.285 4.35038 48.4221Z" fill="white"/>
<path d="M0.999939 48.936V47.5173C0.999939 46.9213 1.28777 46.3495 1.75967 45.9853C31.5119 23.0277 42.5393 18.1248 44.3333 18.5589M0.999939 48.936H3.03889C3.52866 48.936 3.99226 48.7562 4.35038 48.4221C14.144 39.285 34.9873 21.3077 44.3333 18.5589M0.999939 48.936V49.8891C0.999939 50.3999 1.20285 50.8897 1.56403 51.2509L1.7914 51.4783C2.12542 51.8123 2.57845 52 3.05083 52V52C3.5307 52 3.98609 51.8106 4.32265 51.4685C6.54254 49.2123 15.357 40.3199 21.1346 35.4545C27.7878 29.8518 34.7912 23.8989 44.3333 18.5589" stroke="#5F2EEA" stroke-width="0.525253"/>
<path fill-rule="evenodd" clip-rule="evenodd" d="M38.387 9.14751C41.2912 7.55488 48.2539 4.63397 53.3592 3.57959C48.2914 4.62622 41.4872 8.04649 38.6396 9.60806C34.375 11.9467 30.1586 14.7594 28.5559 15.8514C28.3276 16.007 28.0515 16.1594 27.767 16.2307C27.4802 16.3025 27.1675 16.2954 26.8939 16.1046C26.5577 15.8702 26.4168 15.5088 26.3563 15.1429C26.3061 14.8396 26.3081 14.5146 26.3098 14.2252L26.3099 14.214L26.8248 14.0779C26.823 14.3797 26.8323 14.8021 26.8745 15.0572C26.924 15.3566 27.0236 15.5547 27.1943 15.6738C27.3031 15.7497 27.4447 15.7699 27.6394 15.7212C27.8386 15.6712 28.0559 15.5565 28.2602 15.4174C29.867 14.3224 34.0999 11.4985 38.387 9.14751Z" fill="#5F2EEA"/>
<path d="M28.9506 13.161C34.16 10.1696 36.1779 7.93759 53.3592 3.57959C49.7541 4.06779 36.2391 5.77873 28.1165 11.0699C27.0211 11.7835 26.5255 12.9246 26.3099 14.214C27.2935 13.9781 28.0734 13.6647 28.9506 13.161Z" fill="#5F2EEA"/>
<path d="M30.3266 16.3704C26.5623 17.1582 30.9393 22.6734 30.9393 22.6734C30.9393 22.6734 31.8316 24.0597 31.6397 22.2357C31.5387 21.2752 30.085 17.3367 30.3266 16.3704Z" fill="#5F2EEA"/>
<path d="M33.2035 14.9092C28.8231 15.2589 33.1115 21.7728 33.1115 21.7728C33.1115 21.7728 33.673 22.4713 33.6532 20.5724C33.6417 19.4697 32.7821 15.9826 33.2035 14.9092Z" fill="#5F2EEA"/>
<path d="M35.6298 13.2448C31.2373 13.3755 35.1953 20.0953 35.1953 20.0953C35.1953 20.0953 35.7274 21.3438 35.8417 19.3467C35.9011 18.3093 35.1882 14.2229 35.6298 13.2448Z" fill="#5F2EEA"/>
<path d="M38.3067 11.7408C33.5976 11.755 37.631 19.1017 37.631 19.1017C37.631 19.1017 38.1343 20.3298 38.3067 18.2088C38.3987 17.0767 37.7947 12.7995 38.3067 11.7408Z" fill="#5F2EEA"/>
<path d="M41.1125 10.1772C36.0888 10.2269 40.4324 18.0675 40.4324 18.0675C40.4324 18.0675 40.9407 18.4679 41.1125 16.1953C41.2043 14.9814 40.5718 11.3156 41.1125 10.1772Z" fill="#5F2EEA"/>
<path d="M44.7973 9.34725C39.8217 8.65194 42.9555 17.0496 42.9555 17.0496C42.9555 17.0496 43.9832 18.9966 43.8081 13.1313C43.7608 11.5466 44.1725 10.276 44.7973 9.34725Z" fill="#5F2EEA"/>
</svg>
