<?xml version="1.0" encoding="UTF-8" standalone="no"?>
<!DOCTYPE svg PUBLIC "-//W3C//DTD SVG 1.1//EN" "http://www.w3.org/Graphics/SVG/1.1/DTD/svg11.dtd">
<svg width="100%" height="100%" viewBox="0 0 50 50" version="1.1" xmlns="http://www.w3.org/2000/svg" xmlns:xlink="http://www.w3.org/1999/xlink" xml:space="preserve" xmlns:serif="http://www.serif.com/" style="fill-rule:evenodd;clip-rule:evenodd;strokeLinejoin:round;stroke-miterlimit:2;">
    <g transform="matrix(1,0,0,1,-931.57,-147.539)">
        <g transform="matrix(1.02902,0,0,1.02902,472.904,1059.68)">
            <g transform="matrix(2.58564,0,0,2.58564,-344.647,-3874.86)">
                <path d="M314.927,1155.79C316.051,1155.79 317.758,1158.2 317.758,1158.2C317.758,1158.2 320.672,1157.7 321.466,1158.49C322.261,1159.29 321.762,1162.2 321.762,1162.2C321.762,1162.2 324.175,1163.91 324.175,1165.03C324.175,1166.16 321.762,1167.86 321.762,1167.86C321.762,1167.86 322.261,1170.78 321.466,1171.57C320.672,1172.37 317.758,1171.87 317.758,1171.87C317.758,1171.87 316.051,1174.28 314.927,1174.28C313.804,1174.28 312.096,1171.87 312.096,1171.87C312.096,1171.87 309.183,1172.37 308.388,1171.57C307.594,1170.78 308.092,1167.86 308.092,1167.86C308.092,1167.86 305.68,1166.16 305.68,1165.03C305.68,1163.91 308.092,1162.2 308.092,1162.2C308.092,1162.2 307.594,1159.29 308.388,1158.49C309.183,1157.7 312.096,1158.2 312.096,1158.2C312.096,1158.2 313.804,1155.79 314.927,1155.79Z" style="fill:#6f6f6f;"/>
            </g>
            <g transform="matrix(1.34909,0,0,1.35062,-532.185,-3947.31)">
                <path d="M742.366,2284.2L747.872,2278.68C748.282,2278.27 748.947,2278.27 749.357,2278.68L750.842,2280.17C751.252,2280.58 751.252,2281.25 750.842,2281.66L743.499,2289.01C743.478,2289.04 743.455,2289.07 743.431,2289.09L741.945,2290.58C741.74,2290.78 741.469,2290.89 741.199,2290.89C740.929,2290.89 740.659,2290.78 740.453,2290.58L738.968,2289.09C738.944,2289.07 738.921,2289.04 738.9,2289.01L735.057,2285.16C734.647,2284.75 734.647,2284.09 735.057,2283.68L736.542,2282.19C736.952,2281.78 737.618,2281.78 738.028,2282.19L740.938,2285.1L740.937,2285.1L740.943,2285.11L741.199,2285.37L741.201,2285.36L744.176,2288.31L742.366,2284.2Z" style="fill:white;"/>
            </g>
        </g>
    </g>
</svg>
