<?xml version="1.0" encoding="UTF-8" standalone="no"?><svg version="1.1" id="svg6640" xmlns:cc="http://creativecommons.org/ns#" xmlns:dc="http://purl.org/dc/elements/1.1/" xmlns:rdf="http://www.w3.org/1999/02/22-rdf-syntax-ns#" xmlns:svg="http://www.w3.org/2000/svg" xmlns="http://www.w3.org/2000/svg" xmlns:xlink="http://www.w3.org/1999/xlink" x="0px" y="0px" viewBox="0 0 300 146.4" style="enable-background:new 0 0 300 146.4;" xml:space="preserve"><style type="text/css">.st0{clip-path:url(#SVGID_2_);}.st1{fill:#FFFFFF;}.st2{fill:none;stroke:#BDBCBC;stroke-width:0.145;strokeLinecap:round;strokeLinejoin:round;}.st3{fill:#E9E9E9;}.st4{fill:#BF2519;}.st5{fill:#231F20;}</style><g id="g1338" transform="matrix(1.25,0,0,-1.25,-46.875,1061.1122)"><g><defs><rect id="SVGID_1_" x="7.5" y="717.2" width="300" height="146.4"/></defs><clipPath id="SVGID_2_"><use xlink:href="#SVGID_1_"  style="overflow:visible;"/></clipPath><g id="g1340" class="st0"><g id="g1346" transform="translate(405.717,287.389)"><path id="path1348" class="st1" d="M-132.4,496c-1.5,1.2-1.8,1.3-11,4.4c8,2,8.3,2.2,9.7,3.1c3.2,2.2,4.9,5.8,4.7,9.7l0,0.4				c-0.7,6.3-8.7,18.1-14.1,20.7c-3.6,1.7-7.6,1.5-10.7-0.6c-1.5-1-1.7-1.1-7.7-9.4c-0.6,9.7-1.7,26.7-2,28.3l-0.1,0.4l-0.1,0.4				c-1,3.7-4,6.6-7.9,7.5c-6.5,1.6-23.7-3.2-28.3-8c-2.7-2.8-3.7-6.6-2.8-10.2l0.2-0.7l0.3-0.7c0.4-0.9,1.6-2.8,11.6-18.5l3.7-5.8				c-8.9,3.7-9.3,3.7-11.1,3.7c-3.5,0.2-7-1.7-9.2-5.1l0-0.1c-1.1-1.8-1.8-4.2-2.2-6.7c-2.9,3.9-7.2,7-13.8,8.3				c-4.7,0.9-9,0.4-13.1-1.3c-3.8,2.4-8.9,2.7-13.3,0.2c-1.3-0.8-2.3-1.7-3.1-2.6v5.3l-0.4,3.2l-0.1,0.6c-0.9,3.4-3.5,6.3-6.9,7.7				l0,0c-3.8,1.5-8.1,1.2-11.7-1c-3.9-2.3-5.8-6-5.8-11.2v-10.8c-1.4,2.1-3.1,4-5.1,5.5c-5.4,4.1-12.7,5.5-21,4				c-4.8-0.8-8.8-2.9-12-6c-0.1,0.1-0.1,0.2-0.2,0.3c-1.6,2.9-4.2,4.9-7.6,5.8c-5.6,1.5-12.8-0.4-15.7-10.4c0,0-0.5-1.6-1.1-3.8				c-1.3,2.4-4.6,8.8-4.8,9c-3,4.6-9,6.5-14.4,4.4c-5.2-2-8.2-6.5-8.2-11.9c0-1.7,0.3-3.5,0.9-5.3l0.2-0.4c0,0,10.7-21.8,13.8-28.1				c-5-1.3-8.5-5-9.1-10.1c-0.1-0.5-0.1-1-0.1-1.5c0-3.2,1.3-6.3,3.8-8.6c3.7-3.5,9.6-4.6,16.4-3.2c7.4,1.5,11.7,5.9,14.7,15.4				l4.6,14.3c1.5-6,4.2-10,6.7-12.5c3.7-3.6,10.4-7.7,21.6-6.2c8.3,1.2,14,4.9,17.1,9.2l0.2-1.1c0.9-3.1,3.3-5.9,6.5-7.3				c3.4-1.6,7.3-1.5,10.7,0.1c1.8,0.8,3.3,2,4.5,3.5v-4.5c0-7.5,4.3-10.6,6.9-11.9c3.4-1.7,7.4-1.8,10.9-0.3				c3.3,1.4,5.8,4.2,6.7,7.5l0.1,0.5l0.4,3.1c0,0,0,1.2,0,1.3c4.5-0.5,9.2,0.3,13.3,2.4c1.8,0.9,3.4,2.1,4.8,3.4h3c1.6-0.9,3.5-1.4,5.5-1.4c2,0,3.9,0.5,5.5,1.4h8.8c5.8-3.3,14.3-5.7,18.9-5c3.9,0.7,7,3.2,8.3,6.8l0.1,0.2				c0.6,1.6,0.6,1.9,0.7,11c5-8,5.2-8.3,6.6-9.4c3-2.3,7-2.9,10.6-1.4c5.9,2.4,14.8,13.7,15.7,20c0.1,0.5,0.1,1.1,0.1,1.6					C-128.5,491-129.9,494-132.4,496z M-223.4,517.2C-223.4,517.2-223.4,517.2-223.4,517.2C-223.3,517.2-223.3,517.2-223.4,517.2				L-223.4,517.2z M-144.3,466.1L-144.3,466.1C-144.3,466.1-144.3,466.1-144.3,466.1L-144.3,466.1"/></g><g id="g1350" transform="translate(405.717,287.389)"><path id="path1352" class="st2" d="M-132.4,496c-1.5,1.2-1.8,1.3-11,4.4c8,2,8.3,2.2,9.7,3.1c3.2,2.2,4.9,5.8,4.7,9.7l0,0.4				c-0.7,6.3-8.7,18.1-14.1,20.7c-3.6,1.7-7.6,1.5-10.7-0.6c-1.5-1-1.7-1.1-7.7-9.4c-0.6,9.7-1.7,26.7-2,28.3l-0.1,0.4l-0.1,0.4				c-1,3.7-4,6.6-7.9,7.5c-6.5,1.6-23.7-3.2-28.3-8c-2.7-2.8-3.7-6.6-2.8-10.2l0.2-0.7l0.3-0.7c0.4-0.9,1.6-2.8,11.6-18.5l3.7-5.8				c-8.9,3.7-9.3,3.7-11.1,3.7c-3.5,0.2-7-1.7-9.2-5.1l0-0.1c-1.1-1.8-1.8-4.2-2.2-6.7c-2.9,3.9-7.2,7-13.8,8.3				c-4.7,0.9-9,0.4-13.1-1.3c-3.8,2.4-8.9,2.7-13.3,0.2c-1.3-0.8-2.3-1.7-3.1-2.6v5.3l-0.4,3.2l-0.1,0.6c-0.9,3.4-3.5,6.3-6.9,7.7				l0,0c-3.8,1.5-8.1,1.2-11.7-1c-3.9-2.3-5.8-6-5.8-11.2v-10.8c-1.4,2.1-3.1,4-5.1,5.5c-5.4,4.1-12.7,5.5-21,4				c-4.8-0.8-8.8-2.9-12-6c-0.1,0.1-0.1,0.2-0.2,0.3c-1.6,2.9-4.2,4.9-7.6,5.8c-5.6,1.5-12.8-0.4-15.7-10.4c0,0-0.5-1.6-1.1-3.8				c-1.3,2.4-4.6,8.8-4.8,9c-3,4.6-9,6.5-14.4,4.4c-5.2-2-8.2-6.5-8.2-11.9c0-1.7,0.3-3.5,0.9-5.3l0.2-0.4c0,0,10.7-21.8,13.8-28.1				c-5-1.3-8.5-5-9.1-10.1c-0.1-0.5-0.1-1-0.1-1.5c0-3.2,1.3-6.3,3.8-8.6c3.7-3.5,9.6-4.6,16.4-3.2c7.4,1.5,11.7,5.9,14.7,15.4				l4.6,14.3c1.5-6,4.2-10,6.7-12.5c3.7-3.6,10.4-7.7,21.6-6.2c8.3,1.2,14,4.9,17.1,9.2l0.2-1.1c0.9-3.1,3.3-5.9,6.5-7.3				c3.4-1.6,7.3-1.5,10.7,0.1c1.8,0.8,3.3,2,4.5,3.5v-4.5c0-7.5,4.3-10.6,6.9-11.9c3.4-1.7,7.4-1.8,10.9-0.3				c3.3,1.4,5.8,4.2,6.7,7.5l0.1,0.5l0.4,3.1c0,0,0,1.2,0,1.3c4.5-0.5,9.2,0.3,13.3,2.4c1.8,0.9,3.4,2.1,4.8,3.4h3				c1.6-0.9,3.5-1.4,5.5-1.4c2,0,3.9,0.5,5.5,1.4h8.8c5.8-3.3,14.3-5.7,18.9-5c3.9,0.7,7,3.2,8.3,6.8l0.1,0.2				c0.6,1.6,0.6,1.9,0.7,11c5-8,5.2-8.3,6.6-9.4c3-2.3,7-2.9,10.6-1.4c5.9,2.4,14.8,13.7,15.7,20c0.1,0.5,0.1,1.1,0.1,1.6				C-128.5,491-129.9,494-132.4,496z"/><g id="g1354" transform="translate(-23.075,5.382)"><path id="path1356" class="st2" d="M-200.3,511.9C-200.3,511.9-200.3,511.9-200.3,511.9C-200.3,511.8-200.3,511.8-200.3,511.9						L-200.3,511.9z"/><g id="g1358" transform="translate(20.06,-12.978)"><path id="path1360" class="st2" d="M-141.3,473.7L-141.3,473.7C-141.3,473.7-141.3,473.7-141.3,473.7L-141.3,473.7z"/></g></g></g></g></g></g><g id="g1362" transform="matrix(1.25,0,0,-1.25,438.16125,697.87345)"><path id="path1364" class="st3" d="M-184.5,505.5c-1.4-2.3-2-9.4-1.5-14.2c0.2-1.6,0.4-2.9,0.9-3.7c0.6-1.1,1.5-1.7,2.6-1.8	c0.7,0,1.1,0.1,14.2,4.3c0,0,5.8,1.9,5.9,1.9c1.4,0.4,2.4,1.7,2.5,3.4c0.1,1.8-0.8,3.3-2.3,3.9l-4.1,1.7c-14.1,5.8-14.7,6-15.4,6	C-182.8,507.1-183.8,506.5-184.5,505.5"/></g><g id="g1366" transform="matrix(1.25,0,0,-1.25,448.16,711.61345)"><path id="path1368" class="st3" d="M-160.9,473.1c0.2,0.7,0.3,1.1,0.3,14.9c0,0,0,6.1,0,6.2c0.1,1.5-0.9,2.8-2.5,3.5	c-1.6,0.6-3.4,0.2-4.4-1c0,0-2.9-3.4-2.9-3.4c-9.9-11.6-10.3-12.1-10.5-12.8c-0.1-0.4-0.2-0.8-0.2-1.3c0.1-0.6,0.3-1.2,0.8-1.8	c2.3-2.7,13.3-6.8,16.8-6.2C-162.2,471.4-161.3,472.1-160.9,473.1"/></g><g id="g1370" transform="matrix(1.25,0,0,-1.25,455.2225,710.0922)"><path id="path1372" class="st3" d="M-144.3,476.7c3.3,1.3,10.5,10.5,11.1,14c0.2,1.2-0.2,2.3-1.1,3c-0.5,0.4-1,0.6-14.1,4.9	c0,0-5.8,1.9-5.8,1.9c-1.4,0.5-3,0-4.1-1.3c-1.1-1.4-1.3-3.1-0.4-4.5l2.3-3.8c7.8-12.6,8.4-13.5,8.9-14	C-146.6,476.4-145.5,476.2-144.3,476.7"/></g><g id="g1374" transform="matrix(1.25,0,0,-1.25,453.07875,699.7722)"><path id="path1376" class="st3" d="M-149.4,501c14.9,3.6,15.5,3.8,16.1,4.2c0.9,0.6,1.3,1.6,1.3,2.9c0,0,0,0.1,0,0.1	c-0.4,3.7-6.8,13.2-9.9,14.7c-1.1,0.5-2.2,0.5-3.2-0.1c-0.6-0.4-1-0.9-9-11.9c0,0-3.6-4.9-3.6-5c-0.9-1.2-1-2.8,0-4.2	c1-1.5,2.6-2.2,4.1-1.8c0,0-0.1-0.1-0.1-0.1C-153.1,500.1-151.7,500.4-149.4,501"/></g><g id="g1378" transform="matrix(1.25,0,0,-1.25,448.33375,695.87095)"><path id="path1380" class="st3" d="M-160.5,510.2c-0.3,5.9-2,32.2-2.2,33.4c-0.3,1.1-1.2,1.9-2.4,2.2c-3.8,0.9-18.3-3.1-21-5.9	c-0.9-0.9-1.2-2-0.9-3c0.4-0.9,18.4-29.2,18.4-29.2c2.7-4.3,4.8-3.6,5.5-3.4C-162.4,504.5-160.3,505.1-160.5,510.2"/></g><g id="g1382" transform="matrix(1.25,0,0,-1.25,438.53875,696.92845)"><path id="path1384" class="st4" d="M-183.6,507.7c-1.4-2.3-2-9.4-1.5-14.2c0.2-1.6,0.5-2.9,0.9-3.7c0.6-1.1,1.5-1.7,2.6-1.8	c0.7,0,1.1,0.1,14.2,4.3c0,0,5.8,1.9,5.9,1.9c1.5,0.4,2.4,1.7,2.5,3.4c0.1,1.7-0.8,3.3-2.3,3.9c0,0-4.1,1.7-4.1,1.7	c-14.1,5.8-14.7,6-15.4,6C-181.9,509.3-182.9,508.7-183.6,507.7"/></g><g id="g1386" transform="matrix(1.25,0,0,-1.25,448.53875,710.66595)"><path id="path1388" class="st4" d="M-160,475.4c0.2,0.7,0.3,1.1,0.3,14.9c0,0,0,6.1,0,6.1c0.1,1.5-0.9,2.9-2.5,3.5	c-1.6,0.6-3.4,0.2-4.4-1c0,0-2.9-3.4-2.9-3.4c-9.9-11.6-10.3-12.1-10.5-12.8c-0.1-0.4-0.2-0.8-0.2-1.3c0.1-0.6,0.3-1.2,0.8-1.8	c2.3-2.7,13.3-6.8,16.8-6.2C-161.3,473.6-160.4,474.3-160,475.4"/></g><g id="g1390" transform="matrix(1.25,0,0,-1.25,455.60375,709.1447)"><path id="path1392" class="st4" d="M-143.4,478.9c3.3,1.3,10.5,10.5,11,14c0.2,1.2-0.2,2.3-1.1,3c-0.6,0.4-1,0.6-14.1,4.9	c0,0-5.7,1.9-5.8,1.9c-1.4,0.5-3,0-4-1.3c-1.1-1.4-1.3-3.1-0.4-4.5l2.3-3.8c7.8-12.6,8.4-13.5,8.9-14	C-145.7,478.6-144.6,478.5-143.4,478.9"/></g><g id="g1394" transform="matrix(1.25,0,0,-1.25,453.455,698.8272)"><path id="path1396" class="st4" d="M-148.5,503.2c14.9,3.6,15.5,3.8,16.1,4.2c0.9,0.6,1.4,1.6,1.3,2.9c0,0,0,0.1,0,0.1	c-0.4,3.7-6.8,13.2-9.9,14.7c-1.1,0.5-2.2,0.5-3.2-0.1c-0.6-0.4-1-0.9-9-11.9c0,0-3.6-4.9-3.6-5c-0.9-1.2-1-2.8,0-4.2	c1-1.5,2.6-2.2,4.1-1.8c0,0-0.1-0.1-0.1-0.1C-152.2,502.3-150.9,502.6-148.5,503.2"/></g><g id="g1398" transform="matrix(1.25,0,0,-1.25,448.7125,694.92595)"><path id="path1400" class="st4" d="M-159.6,512.4c-0.3,5.9-2,32.2-2.2,33.4c-0.3,1.1-1.2,1.9-2.4,2.2c-3.8,0.9-18.3-3.1-21-5.9	c-0.9-0.9-1.2-2-0.9-3c0.4-0.9,18.4-29.2,18.4-29.2c2.7-4.3,4.8-3.6,5.5-3.4C-161.5,506.7-159.4,507.4-159.6,512.4"/></g><g id="g1402" transform="matrix(1.25,0,0,-1.25,390.21,714.68845)"><path id="path1404" class="st5" d="M-297.3,465.9c1.9-1.7,5.4-2.2,9.7-1.4c4,0.8,6.6,2.6,9,10.3l12,37.8c0.6,2,0.6,3.7-0.1,5	c-0.6,1-1.5,1.7-2.9,2.1c-2.1,0.6-4.8,0.5-6.5-5.2l-6.3-21.4c0,0-12.9,24.3-12.9,24.3c-0.8,1.6-3.2,2.8-5.6,1.8	c-3.2-1.2-4.2-4-3-7.7c0,0,15.6-31.8,15.7-31.9c0,0,0.4-1.1,0.4-1.3c0,0,0.1-0.9,0.1-0.9c0-1.2-0.4-2.3-1.2-2.9	c-0.7-0.7-1.7-1-2.9-1c0,0-2.4,0.1-2.6,0.1c-2.5-0.3-4.1-1.7-4.3-4C-298.8,468.1-298.3,466.9-297.3,465.9"/></g><g id="g1406" transform="matrix(1.25,0,0,-1.25,409.75875,703.3197)"><path id="path1408" class="st5" d="M-251.3,492.6H-268c-0.5,0.3-0.7,0.9-0.3,2.6c0.2,0.9,0.4,1.7,1.1,2.8c0.2,0.3,0.4,0.7,0.7,1	c1.2,1.5,2.9,2.5,4.8,3c5.9,1.4,10-1.6,10.7-6.7C-250.8,493.1-251,492.6-251.3,492.6z M-241,495.6c-0.5,5.5-2.6,9.7-6.1,12.3	c-3.7,2.8-8.9,3.7-15.1,2.6c-7.7-1.3-12.4-6.9-13.4-16c-1.3-10.9,0.5-19.1,5.2-23.8c3.6-3.5,8.8-4.9,15.2-4.1	c9.1,1.3,13.2,6.3,13.2,9.5c0,2.3-1.4,4.2-3.5,4.4c-1.2,0.2-2.2,0-4.4-2c-3.2-2.8-6.9-3.9-10.2-3.1c-2.5,0.6-4.4,2.4-5.3,4.7	c0,0-0.4,1.6-0.4,1.4c-0.3,1.4-0.4,2.8,0.5,3.4l0.2,0.2h20.1c1.9,0,2.8,0.2,3.3,0.8C-240.4,487.2-240.5,490.7-241,495.6"/></g><g id="g1410" transform="matrix(1.25,0,0,-1.25,418.79625,693.2322)"><path id="path1412" class="st5" d="M-230,516.4c-1.6,0.6-3.4,0.5-5-0.5c-1.5-0.9-2.1-2.3-2.1-4.7v-47.9c0,0,0.3-1.7,0.3-1.8	c0.3-1.2,1.2-2.2,2.4-2.8c1.4-0.6,2.9-0.6,4.3,0c1.7,0.8,2.8,2.5,2.8,4.7v48c0,0-0.3,2.3-0.3,2.4	C-227.9,514.9-228.8,515.9-230,516.4"/></g><g id="g1414" transform="matrix(1.25,0,0,-1.25,430.81125,708.65345)"><path id="path1416" class="st5" d="M-201.7,480.1c-6.6,0-7.7,5.9-7.9,10.3c0,0-0.1,2.6-0.1,2.6s0.1,1.9,0.1,2	c0.4,7.7,2,10.7,6.1,11.6c2.7,0.6,4.8,0.3,6.4-0.9c2.3-1.9,3.4-5.9,3.3-12.6C-194,485.3-195.4,480.1-201.7,480.1z M-201.3,515.2	c-4.4,0.9-8.2,0.1-11.9-2.3c0,0-0.4-0.3-0.6-0.4l-0.3-0.2l-1-0.4l-0.3,1.1l-0.2,0.4l-0.1,0.3l0,0.1c0,0-0.2,0.3-0.3,0.4	c-1,1.6-3.9,2.4-6.5,0.9c-1.3-0.7-2-1.7-2-4.7v-47c0-2.6,0.8-4.2,2.6-5c1.5-0.7,3.2-0.8,4.6-0.2c1.2,0.5,2.1,1.5,2.5,2.6l0.3,2v8.1	l-0.1,1.3l0,0.4l0.1,0.2l0.5,1.5l1.5-1c0,0,0.4-0.2,0.5-0.4l0.4-0.3c0,0,0.5-0.3,0.5-0.3c0,0,0.5-0.2,0.5-0.2	c3.9-1.9,9.2-1.6,13.5,0.5c5.3,2.8,8,7.7,8.6,16.1C-187.2,505.3-191.1,513.3-201.3,515.2"/></g><g id="g1418" transform="matrix(1.25,0,0,-1.25,437.5,709.8197)"><path id="path1420" class="st5" d="M-186,477.3h0.5c0.4,0,0.9,0,0.9,0.5c0,0.4-0.4,0.5-0.7,0.5h-0.7V477.3z M-186.5,478.8h1.2	c0.8,0,1.1-0.3,1.1-0.9c0-0.6-0.4-0.8-0.8-0.9l0.9-1.4h-0.5l-0.9,1.4h-0.6v-1.4h-0.4V478.8z M-185.4,474.8c1.3,0,2.3,1,2.3,2.4	c0,1.3-1,2.4-2.3,2.4c-1.3,0-2.3-1-2.3-2.4C-187.8,475.8-186.7,474.8-185.4,474.8z M-185.4,480c1.5,0,2.8-1.2,2.8-2.8	c0-1.6-1.3-2.8-2.8-2.8c-1.5,0-2.8,1.2-2.8,2.7C-188.2,478.8-186.9,480-185.4,480"/></g></svg>